<svg height='300px' width='300px'  fill="#000000" xmlns="http://www.w3.org/2000/svg" xmlns:xlink="http://www.w3.org/1999/xlink" version="1.1" x="0px" y="0px" viewBox="0 0 24 24" style="enable-background:new 0 0 24 24;" xml:space="preserve"><g><polygon points="14.224,16.671 11.776,15.447 11.5,15 11.5,10.5 12.5,10.5 12.5,14.691 14.671,15.776  "></polygon><path d="M16.499,6H7.5C6.673,6,6,5.327,6,4.5V3.5C6,2.673,6.673,2,7.5,2l0-0.5C7.5,0.673,8.173,0,9,0h5.999   C15.826,0,16.5,0.673,16.5,1.5V2C17.327,2,18,2.673,18,3.5V4.5C18,5.327,17.326,6,16.499,6z M9,1C8.725,1,8.5,1.225,8.5,1.5V2   c0,0.551-0.448,1-1,1C7.225,3,7,3.225,7,3.5V4.5C7,4.775,7.225,5,7.5,5h8.999C16.775,5,17,4.775,17,4.5V3.5   C17,3.225,16.775,3,16.499,3C15.948,3,15.5,2.552,15.5,2V1.5c0-0.276-0.225-0.5-0.501-0.5H9z M16,2l0.5,0v0H16z"></path><path d="M19.995,24H4.005C2.899,24,2,23.101,2,21.995V5.005C2,3.899,2.899,3,4.005,3H6.5v1H4.005C3.451,4,3,4.451,3,5.005v16.99   C3,22.549,3.451,23,4.005,23h15.99C20.549,23,21,22.549,21,21.995V5.005C21,4.451,20.549,4,19.995,4H17.5V3h2.495   C21.101,3,22,3.899,22,5.005v16.99C22,23.101,21.101,24,19.995,24z"></path></g></svg>